<?xml version="1.0" encoding="UTF-8"?>
<!DOCTYPE svg PUBLIC "-//W3C//DTD SVG 1.1//EN" "http://www.w3.org/Graphics/SVG/1.1/DTD/svg11.dtd">
<!-- Creator: CorelDRAW 2017 -->
<svg xmlns="http://www.w3.org/2000/svg" xml:space="preserve" width="1000px" height="1000px" version="1.1" style="shape-rendering:geometricPrecision; text-rendering:geometricPrecision; image-rendering:optimizeQuality; fill-rule:evenodd; clip-rule:evenodd"
viewBox="0 0 27.52 27.52"
 xmlns:xlink="http://www.w3.org/1999/xlink">
 <defs>
  <style type="text/css">
   <![CDATA[
    .fil0 {fill:#9A9FBF;fill-rule:nonzero}
   ]]>
  </style>
 </defs>
 <g id="Layer_x0020_1">
  <metadata id="CorelCorpID_0Corel-Layer"/>
  <path class="fil0" d="M13.76 0c3.8,0 7.24,1.54 9.73,4.03 2.49,2.49 4.03,5.93 4.03,9.73 0,3.8 -1.54,7.24 -4.03,9.73 -2.49,2.49 -5.93,4.03 -9.73,4.03 -3.8,0 -7.24,-1.54 -9.73,-4.03 -2.49,-2.49 -4.03,-5.93 -4.03,-9.73 0,-3.8 1.54,-7.24 4.03,-9.73 2.49,-2.49 5.93,-4.03 9.73,-4.03zm-9.23 22.89c0.43,-2.03 1.51,-3.81 3.02,-5.13 1.1,-0.97 2.44,-1.68 3.91,-2.05 -0.64,-0.29 -1.22,-0.69 -1.71,-1.18 -1.03,-1.03 -1.66,-2.44 -1.66,-4.01 0,-1.57 0.63,-2.99 1.66,-4.02 1.03,-1.03 2.45,-1.66 4.01,-1.66 1.57,0 2.99,0.63 4.02,1.66 1.03,1.03 1.66,2.45 1.66,4.02 0,1.57 -0.63,2.98 -1.66,4.01 -0.49,0.49 -1.07,0.89 -1.71,1.18 1.47,0.37 2.8,1.08 3.91,2.05 1.5,1.32 2.59,3.1 3.02,5.12 2.31,-2.34 3.74,-5.56 3.74,-9.12 0,-3.58 -1.45,-6.83 -3.8,-9.18 -2.35,-2.35 -5.59,-3.8 -9.18,-3.8 -3.58,0 -6.83,1.45 -9.18,3.8 -2.35,2.35 -3.8,5.6 -3.8,9.18 0,3.56 1.43,6.78 3.75,9.13zm17.8 0.63c-0.32,-2.05 -1.37,-3.87 -2.86,-5.18 -1.52,-1.33 -3.52,-2.14 -5.71,-2.14 -2.18,0 -4.18,0.81 -5.7,2.15 -1.5,1.3 -2.54,3.12 -2.86,5.17 2.29,2.01 5.28,3.22 8.56,3.22 3.28,0 6.28,-1.21 8.57,-3.22zm-5.1 -16.47c-0.89,-0.88 -2.11,-1.43 -3.47,-1.43 -1.35,0 -2.57,0.55 -3.46,1.43 -0.89,0.89 -1.44,2.11 -1.44,3.47 0,1.35 0.55,2.58 1.44,3.46 0.89,0.89 2.11,1.44 3.46,1.44 1.36,0 2.58,-0.55 3.47,-1.44 0.88,-0.88 1.43,-2.11 1.43,-3.46 0,-1.36 -0.55,-2.58 -1.43,-3.47z"/>
 </g>
</svg>
